<mxfile host="app.diagrams.net" agent="Mozilla/5.0 (Windows NT 10.0; Win64; x64; rv:129.0) Gecko/20100101 Firefox/129.0" version="24.7.7">
  <diagram name="Seite-1" id="QBtAicqbUVZQdsimcTui">
    <mxGraphModel dx="819" dy="515" grid="1" gridSize="10" guides="1" tooltips="1" connect="1" arrows="1" fold="1" page="1" pageScale="1" pageWidth="827" pageHeight="1169" math="0" shadow="0">
      <root>
        <mxCell id="0" />
        <mxCell id="1" parent="0" />
        <mxCell id="gM31Aiu781X3lYicxg-w-7" style="edgeStyle=orthogonalEdgeStyle;rounded=0;orthogonalLoop=1;jettySize=auto;html=1;exitX=1;exitY=0.5;exitDx=0;exitDy=0;entryX=0.5;entryY=0;entryDx=0;entryDy=0;" edge="1" parent="1" source="gM31Aiu781X3lYicxg-w-1" target="gM31Aiu781X3lYicxg-w-8">
          <mxGeometry relative="1" as="geometry" />
        </mxCell>
        <mxCell id="gM31Aiu781X3lYicxg-w-1" value="1" style="rounded=1;whiteSpace=wrap;html=1;" vertex="1" parent="1">
          <mxGeometry x="110" y="190" width="100" height="60" as="geometry" />
        </mxCell>
        <mxCell id="gM31Aiu781X3lYicxg-w-2" value="1" style="rounded=1;whiteSpace=wrap;html=1;" vertex="1" parent="1">
          <mxGeometry x="110" y="270" width="100" height="60" as="geometry" />
        </mxCell>
        <mxCell id="gM31Aiu781X3lYicxg-w-3" value="" style="rounded=1;whiteSpace=wrap;html=1;" vertex="1" parent="1">
          <mxGeometry x="110" y="350" width="100" height="60" as="geometry" />
        </mxCell>
        <mxCell id="gM31Aiu781X3lYicxg-w-4" value="" style="rounded=1;whiteSpace=wrap;html=1;" vertex="1" parent="1">
          <mxGeometry x="110" y="430" width="100" height="60" as="geometry" />
        </mxCell>
        <mxCell id="gM31Aiu781X3lYicxg-w-5" value="" style="rounded=1;whiteSpace=wrap;html=1;" vertex="1" parent="1">
          <mxGeometry x="110" y="510" width="100" height="60" as="geometry" />
        </mxCell>
        <mxCell id="gM31Aiu781X3lYicxg-w-8" value="+" style="ellipse;whiteSpace=wrap;html=1;aspect=fixed;" vertex="1" parent="1">
          <mxGeometry x="228" y="288" width="24" height="24" as="geometry" />
        </mxCell>
        <mxCell id="gM31Aiu781X3lYicxg-w-9" value="" style="endArrow=classic;html=1;rounded=0;exitX=0.5;exitY=1;exitDx=0;exitDy=0;entryX=1;entryY=0.25;entryDx=0;entryDy=0;" edge="1" parent="1" source="gM31Aiu781X3lYicxg-w-8" target="gM31Aiu781X3lYicxg-w-3">
          <mxGeometry width="50" height="50" relative="1" as="geometry">
            <mxPoint x="390" y="480" as="sourcePoint" />
            <mxPoint x="440" y="430" as="targetPoint" />
            <Array as="points">
              <mxPoint x="240" y="365" />
            </Array>
          </mxGeometry>
        </mxCell>
        <mxCell id="gM31Aiu781X3lYicxg-w-11" value="" style="endArrow=classic;html=1;rounded=0;exitX=1;exitY=0.5;exitDx=0;exitDy=0;entryX=0;entryY=0.5;entryDx=0;entryDy=0;" edge="1" parent="1" source="gM31Aiu781X3lYicxg-w-2" target="gM31Aiu781X3lYicxg-w-8">
          <mxGeometry width="50" height="50" relative="1" as="geometry">
            <mxPoint x="290" y="380" as="sourcePoint" />
            <mxPoint x="340" y="330" as="targetPoint" />
          </mxGeometry>
        </mxCell>
        <mxCell id="gM31Aiu781X3lYicxg-w-17" style="edgeStyle=orthogonalEdgeStyle;rounded=0;orthogonalLoop=1;jettySize=auto;html=1;exitX=0;exitY=0.5;exitDx=0;exitDy=0;entryX=0.5;entryY=0;entryDx=0;entryDy=0;" edge="1" parent="1" target="gM31Aiu781X3lYicxg-w-18" source="gM31Aiu781X3lYicxg-w-2">
          <mxGeometry relative="1" as="geometry">
            <mxPoint x="50" y="315" as="sourcePoint" />
          </mxGeometry>
        </mxCell>
        <mxCell id="gM31Aiu781X3lYicxg-w-18" value="+" style="ellipse;whiteSpace=wrap;html=1;aspect=fixed;" vertex="1" parent="1">
          <mxGeometry x="68" y="368" width="24" height="24" as="geometry" />
        </mxCell>
        <mxCell id="gM31Aiu781X3lYicxg-w-19" value="" style="endArrow=classic;html=1;rounded=0;exitX=0.5;exitY=1;exitDx=0;exitDy=0;entryX=0;entryY=0.25;entryDx=0;entryDy=0;" edge="1" parent="1" source="gM31Aiu781X3lYicxg-w-18" target="gM31Aiu781X3lYicxg-w-4">
          <mxGeometry width="50" height="50" relative="1" as="geometry">
            <mxPoint x="230" y="560" as="sourcePoint" />
            <mxPoint x="50" y="445" as="targetPoint" />
            <Array as="points">
              <mxPoint x="80" y="445" />
            </Array>
          </mxGeometry>
        </mxCell>
        <mxCell id="gM31Aiu781X3lYicxg-w-20" value="" style="endArrow=classic;html=1;rounded=0;exitX=0;exitY=0.5;exitDx=0;exitDy=0;entryX=1;entryY=0.5;entryDx=0;entryDy=0;" edge="1" parent="1" target="gM31Aiu781X3lYicxg-w-18" source="gM31Aiu781X3lYicxg-w-3">
          <mxGeometry width="50" height="50" relative="1" as="geometry">
            <mxPoint x="50" y="380" as="sourcePoint" />
            <mxPoint x="90" y="380" as="targetPoint" />
          </mxGeometry>
        </mxCell>
        <mxCell id="gM31Aiu781X3lYicxg-w-22" style="edgeStyle=orthogonalEdgeStyle;rounded=0;orthogonalLoop=1;jettySize=auto;html=1;exitX=1;exitY=0.5;exitDx=0;exitDy=0;entryX=0.5;entryY=0;entryDx=0;entryDy=0;" edge="1" parent="1" target="gM31Aiu781X3lYicxg-w-23">
          <mxGeometry relative="1" as="geometry">
            <mxPoint x="210" y="380" as="sourcePoint" />
          </mxGeometry>
        </mxCell>
        <mxCell id="gM31Aiu781X3lYicxg-w-23" value="+" style="ellipse;whiteSpace=wrap;html=1;aspect=fixed;" vertex="1" parent="1">
          <mxGeometry x="228" y="448" width="24" height="24" as="geometry" />
        </mxCell>
        <mxCell id="gM31Aiu781X3lYicxg-w-24" value="" style="endArrow=classic;html=1;rounded=0;exitX=0.5;exitY=1;exitDx=0;exitDy=0;entryX=1;entryY=0.25;entryDx=0;entryDy=0;" edge="1" parent="1" source="gM31Aiu781X3lYicxg-w-23">
          <mxGeometry width="50" height="50" relative="1" as="geometry">
            <mxPoint x="390" y="640" as="sourcePoint" />
            <mxPoint x="210" y="525" as="targetPoint" />
            <Array as="points">
              <mxPoint x="240" y="525" />
            </Array>
          </mxGeometry>
        </mxCell>
        <mxCell id="gM31Aiu781X3lYicxg-w-25" value="" style="endArrow=classic;html=1;rounded=0;exitX=1;exitY=0.5;exitDx=0;exitDy=0;entryX=0;entryY=0.5;entryDx=0;entryDy=0;" edge="1" parent="1" target="gM31Aiu781X3lYicxg-w-23">
          <mxGeometry width="50" height="50" relative="1" as="geometry">
            <mxPoint x="210" y="460" as="sourcePoint" />
            <mxPoint x="340" y="490" as="targetPoint" />
          </mxGeometry>
        </mxCell>
      </root>
    </mxGraphModel>
  </diagram>
</mxfile>
